<svg width="283.000000" height="29.000000" viewBox="0 0 283 29" fill="none" xmlns="http://www.w3.org/2000/svg" xmlns:xlink="http://www.w3.org/1999/xlink">
	<desc>
			Created with Pixso.
	</desc>
	<metadata><?xpacket begin="﻿" id="W5M0MpCehiHzreSzNTczkc9d"?>
<x:xmpmeta xmlns:x="adobe:ns:meta/" x:xmptk="Adobe XMP Core 7.1-c000 79.4d2f597, 2021/09/01-20:51:22        ">
   <rdf:RDF xmlns:rdf="http://www.w3.org/1999/02/22-rdf-syntax-ns#">
      <rdf:Description rdf:about=""
            xmlns:dc="http://purl.org/dc/elements/1.1/"
            xmlns:xmp="http://ns.adobe.com/xap/1.0/"
            xmlns:xmpMM="http://ns.adobe.com/xap/1.0/mm/"
            xmlns:stEvt="http://ns.adobe.com/xap/1.0/sType/ResourceEvent#">
         <dc:description>
            <rdf:Alt>
               <rdf:li xml:lang="x-default">&#xA;</rdf:li>
            </rdf:Alt>
         </dc:description>
         <xmp:Rating>5</xmp:Rating>
         <xmp:MetadataDate>2024-12-25T00:55:16+05:00</xmp:MetadataDate>
         <xmpMM:InstanceID>xmp.iid:28f014bd-fef8-2d4d-84e7-cdb3b05d7b52</xmpMM:InstanceID>
         <xmpMM:DocumentID>xmp.did:28f014bd-fef8-2d4d-84e7-cdb3b05d7b52</xmpMM:DocumentID>
         <xmpMM:OriginalDocumentID>xmp.did:28f014bd-fef8-2d4d-84e7-cdb3b05d7b52</xmpMM:OriginalDocumentID>
         <xmpMM:History>
            <rdf:Seq>
               <rdf:li>
                  <rdf:Description>
                     <stEvt:action>saved</stEvt:action>
                     <stEvt:instanceID>xmp.iid:28f014bd-fef8-2d4d-84e7-cdb3b05d7b52</stEvt:instanceID>
                     <stEvt:when>2024-12-25T00:55:16+05:00</stEvt:when>
                     <stEvt:softwareAgent>Adobe Bridge 2023</stEvt:softwareAgent>
                     <stEvt:changed>/metadata</stEvt:changed>
                  </rdf:Description>
               </rdf:li>
            </rdf:Seq>
         </xmpMM:History>
      </rdf:Description>
   </rdf:RDF>
</x:xmpmeta>
                                                                                                    
                                                                                                    
                                                                                                    
                                                                                                    
                                                                                                    
                                                                                                    
                                                                                                    
                                                                                                    
                                                                                                    
                                                                                                    
                                                                                                    
                                                                                                    
                                                                                                    
                                                                                                    
                                                                                                    
                                                                                                    
                                                                                                    
                                                                                                    
                                                                                                    
                                                                                                    
                           
<?xpacket end="w"?></metadata>
<defs/>
	<path id="Vector" d="M12.85 1.56C13.11 1.57 13.37 1.58 13.62 1.61C14 1.66 14.32 1.84 14.54 2.17C14.79 2.52 14.86 2.86 14.89 3.29C15.02 4.86 15.06 6.63 15.06 8.44C15.06 9.95 15.04 11.5 15.01 13C14.98 14.41 14.96 15.77 14.96 17.03L14.96 17.05C14.96 17.84 14.98 18.79 15 19.79C15.03 20.92 15.06 22.13 15.06 23.29C15.06 24.71 15.02 26.05 14.88 27.08C14.78 27.83 14.35 28.15 13.83 28.58C13.28 28.57 12.7 28.49 12.3 28.04C11.99 27.69 11.89 27.28 11.84 26.81C11.73 25.56 11.69 24.24 11.69 22.91C11.69 21.72 11.72 20.51 11.75 19.32C11.78 18.2 11.8 17.08 11.81 16.01Q11.81 15.93 11.81 15.86L11.81 15.85C11.81 14.53 11.78 13.19 11.76 11.85C11.74 10.5 11.72 9.15 11.72 7.8C11.72 6.35 11.74 4.91 11.82 3.48C11.88 2.52 12.2 2.18 12.85 1.56ZM5.24 5.67C5.3 5.68 5.36 5.69 5.42 5.7C5.94 5.79 6.43 6 6.74 6.48C7.03 6.93 7.15 12.3 7.15 16.8C7.15 19.77 7.1 22.37 7 22.94C6.87 23.69 6.38 24.01 5.83 24.41C5.7 24.4 5.56 24.38 5.43 24.36C4.93 24.25 4.5 24 4.22 23.54C4.02 23.19 3.99 22.74 3.96 22.34C3.89 21.23 3.83 17.45 3.83 13.92C3.83 10.75 3.88 7.77 4.03 7.09C4.18 6.36 4.7 6.05 5.24 5.67ZM17.05 7.83C17.17 7.86 17.29 7.89 17.4 7.93C17.89 8.11 18.33 8.34 18.55 8.88C18.75 9.36 18.85 12.39 18.85 15.35C18.85 18.11 18.76 20.8 18.58 21.27C18.35 21.89 17.88 22.11 17.34 22.36C17.33 22.36 17.32 22.36 17.3 22.35C16.72 22.2 16.26 22.07 15.94 21.48C15.67 21 15.54 17.36 15.54 14.14C15.54 11.78 15.61 9.64 15.75 9.13C15.94 8.43 16.49 8.13 17.05 7.83ZM8.86 9.97C9.06 9.97 9.26 9.98 9.46 10C9.85 10.05 10.16 10.23 10.4 10.58C10.91 11.31 11.07 12.95 11.07 14.6C11.07 16.07 10.94 17.55 10.83 18.37C10.72 19.2 10.47 19.62 9.85 20.12C9.65 20.11 9.45 20.1 9.25 20.09C8.83 20.05 8.57 19.92 8.3 19.57C7.75 18.84 7.6 17.2 7.6 15.56C7.6 14.15 7.71 12.75 7.8 11.95C7.91 11 8.16 10.56 8.86 9.97ZM20.71 9.99C20.85 9.98 20.98 9.99 21.12 10L21.13 10C21.6 10.02 21.94 10.11 22.25 10.49C22.84 11.23 22.99 12.69 22.99 14.13C22.99 14.99 22.94 15.85 22.9 16.54C22.88 16.78 22.87 17.01 22.86 17.21C22.8 18.44 22.73 19.23 21.84 20.09C21.62 20.1 21.39 20.09 21.16 20.08C20.76 20.05 20.5 19.92 20.24 19.58C19.66 18.84 19.5 17.24 19.5 15.67C19.5 14.4 19.6 13.14 19.67 12.36L19.67 12.35C19.76 11.26 19.92 10.7 20.71 9.99ZM1.06 11.96C1.09 11.96 1.13 11.96 1.16 11.96C1.41 11.94 1.67 11.93 1.91 11.96C2.28 12 2.61 12.23 2.83 12.54C3.25 13.12 3.39 13.91 3.39 14.67C3.39 14.97 3.37 15.26 3.33 15.54C3.18 16.65 3.05 17.16 2.2 17.84C2.03 17.86 1.84 17.88 1.67 17.86C1.23 17.82 0.83 17.62 0.55 17.25C0.14 16.71 0 15.85 0 15.11C0 14.95 0 14.8 0.01 14.66C0.11 13.5 0.18 12.75 1.06 11.96ZM24.86 12.13C25.12 12.14 25.38 12.16 25.63 12.21C26 12.28 26.33 12.57 26.53 12.91C26.88 13.5 27.01 14.21 27.01 14.93C27.01 15.49 26.93 16.06 26.81 16.58C26.62 17.39 26.31 17.71 25.65 18.13C25.46 18.12 25.27 18.09 25.08 18.06C24.66 17.99 24.34 17.77 24.1 17.39C23.72 16.8 23.59 16.06 23.59 15.33C23.59 14.83 23.65 14.33 23.74 13.87C23.92 12.96 24.14 12.64 24.86 12.13Z" fill="#8E6AFF" fill-opacity="1.000000" fill-rule="evenodd"/>
	<path id="Vector" d="M235.43 0.19C235.88 0.18 236.4 0.15 236.97 0.11C239 -0.03 241.58 -0.21 242.93 0.74C243.25 0.97 243.61 1.35 243.66 1.77C243.67 1.83 243.67 1.89 243.67 1.95C243.67 2.19 243.6 2.41 243.46 2.62C243.09 3.15 242.49 3.42 241.9 3.51C240.57 3.77 236.67 3.78 235.41 3.33C234.89 3.15 234.19 2.77 233.97 2.2C233.91 2.08 233.89 1.95 233.89 1.82C233.89 1.72 233.9 1.62 233.94 1.52C234.17 0.89 234.88 0.44 235.43 0.19ZM78.07 0.18C78.51 0.17 79.02 0.14 79.57 0.11C81.61 -0.01 84.19 -0.17 85.62 0.67C86.05 0.92 86.18 1.18 86.31 1.66C86.26 2.1 86.11 2.43 85.88 2.78C85.53 3.32 85.09 3.4 84.54 3.51C83.35 3.74 79.5 3.72 78.39 3.43C77.62 3.22 76.95 2.89 76.53 2.14C76.53 2.11 76.52 2.06 76.52 2.01C76.5 1.93 76.49 1.83 76.49 1.74C76.49 1.68 76.5 1.63 76.51 1.59C76.76 0.96 77.5 0.45 78.07 0.18ZM55.35 0.17C55.77 0.16 56.28 0.14 56.83 0.11C58.7 0 61.07 -0.13 62.35 0.44C62.75 0.62 63.14 0.92 63.3 1.36C63.31 1.4 63.33 1.45 63.34 1.49C63.35 1.54 63.36 1.58 63.37 1.63C63.38 1.67 63.38 1.72 63.38 1.77C63.39 1.8 63.39 1.83 63.39 1.86C63.39 1.88 63.39 1.89 63.39 1.91Q63.39 1.94 63.38 1.98Q63.38 2.01 63.38 2.05C63.37 2.09 63.36 2.14 63.35 2.19C63.34 2.23 63.33 2.28 63.32 2.32C63.3 2.36 63.29 2.41 63.27 2.45C63.01 3.04 62.51 3.32 61.98 3.54C61.55 3.54 61.04 3.57 60.49 3.6C58.6 3.71 56.24 3.84 54.91 3.29C54.51 3.12 54.09 2.83 53.93 2.39C53.88 2.25 53.86 2.1 53.86 1.94C53.86 1.69 53.92 1.43 54 1.22C54.26 0.61 54.8 0.38 55.35 0.17ZM133.13 0.19C133.42 0.18 133.73 0.16 134.06 0.13C136.19 0 139.08 -0.19 140.74 0.69C141.2 0.93 141.31 1.16 141.47 1.64C141.44 2.01 141.3 2.26 141.11 2.56C140.65 3.25 140.31 3.38 139.55 3.52C137.99 3.76 134.36 3.84 132.95 3.34C132.52 3.19 132.08 2.92 131.88 2.46C131.8 2.29 131.77 2.11 131.77 1.92C131.77 1.71 131.81 1.5 131.88 1.31C132.09 0.69 132.61 0.44 133.13 0.19ZM172.47 0.19C172.76 0.18 173.07 0.16 173.41 0.13C175.53 0 178.42 -0.19 180.08 0.69C180.54 0.93 180.65 1.15 180.81 1.64C180.78 2.01 180.64 2.26 180.45 2.56C179.99 3.25 179.65 3.38 178.89 3.52C177.33 3.76 173.76 3.84 172.34 3.36C171.89 3.21 171.43 2.94 171.22 2.46C171.14 2.29 171.11 2.11 171.11 1.92C171.11 1.71 171.15 1.5 171.22 1.31C171.43 0.69 171.95 0.44 172.47 0.19ZM35.67 0.17C36.04 0.16 36.51 0.14 37.03 0.11C38.97 0.01 41.62 -0.14 42.84 0.52C43.19 0.71 43.51 1.01 43.63 1.43C43.66 1.56 43.68 1.7 43.68 1.85C43.68 2.14 43.62 2.43 43.51 2.65C43.22 3.19 42.67 3.39 42.15 3.55C41.7 3.55 41.15 3.58 40.55 3.61C38.73 3.72 36.48 3.84 35.25 3.22C34.79 2.99 34.29 2.6 34.12 2.06C34.09 1.97 34.08 1.88 34.08 1.78C34.08 1.63 34.11 1.48 34.17 1.35C34.45 0.77 35.12 0.37 35.67 0.17ZM101.72 0.19C102.06 0.18 102.49 0.16 102.97 0.13C104.99 0.02 107.95 -0.15 109.11 0.62C109.44 0.84 109.68 1.15 109.76 1.57C109.77 1.66 109.78 1.75 109.78 1.85C109.78 2.19 109.68 2.55 109.5 2.81C109.14 3.33 108.6 3.42 108.05 3.52C106.83 3.69 102.48 3.78 101.55 3.4C101.05 3.19 100.59 2.82 100.38 2.28C100.36 2.24 100.35 2.2 100.34 2.15C100.32 2.11 100.31 2.07 100.31 2.03C100.3 1.99 100.29 1.94 100.29 1.9C100.28 1.86 100.28 1.82 100.28 1.78L100.28 1.77C100.28 1.73 100.29 1.69 100.29 1.64C100.29 1.6 100.3 1.56 100.31 1.51C100.32 1.47 100.33 1.43 100.34 1.39C100.35 1.35 100.37 1.31 100.39 1.27C100.63 0.67 101.19 0.4 101.72 0.19ZM148.88 0.19C149.01 0.18 149.17 0.17 149.35 0.16C151.23 0.05 155.27 -0.2 156.39 0.62C156.7 0.84 156.92 1.17 156.98 1.57C156.99 1.64 157 1.7 157 1.77C157 2.15 156.85 2.54 156.64 2.84C156.3 3.32 155.9 3.41 155.38 3.5C154.18 3.78 149.78 3.76 148.59 3.3C148.11 3.11 147.78 2.87 147.56 2.36C147.51 2.25 147.49 2.12 147.49 1.99C147.49 1.76 147.54 1.52 147.61 1.35C147.85 0.69 148.32 0.45 148.88 0.19ZM259.02 0.19L259.17 0.18C260.83 0.08 265.3 -0.21 266.49 0.58C266.81 0.8 267.03 1.1 267.1 1.5C267.12 1.6 267.13 1.71 267.13 1.82C267.13 2.16 267.05 2.55 266.9 2.79C266.56 3.32 265.96 3.42 265.41 3.52C263.72 3.75 260.32 3.85 258.79 3.25C258.22 3.03 257.77 2.71 257.5 2.1C257.5 2.06 257.5 2.02 257.5 1.98C257.49 1.92 257.49 1.86 257.49 1.8C257.49 1.71 257.5 1.63 257.52 1.55C257.76 0.92 258.46 0.44 259.02 0.19ZM117.41 0.19C117.73 0.19 118.16 0.16 118.64 0.14C120.7 0.04 123.86 -0.12 124.97 0.63C125.25 0.82 125.47 1.1 125.52 1.46C125.54 1.53 125.54 1.6 125.54 1.68C125.54 2.07 125.4 2.56 125.2 2.84C124.88 3.32 124.38 3.41 123.88 3.51C122.75 3.74 118.63 3.75 117.52 3.39C117 3.21 116.23 2.82 115.99 2.26C115.92 2.11 115.88 1.95 115.88 1.79C115.88 1.69 115.9 1.58 115.94 1.47C116.17 0.88 116.88 0.43 117.41 0.19ZM274.77 0.19C275.08 0.19 275.49 0.17 275.97 0.14C278.04 0.04 281.32 -0.13 282.39 0.67C282.65 0.86 282.85 1.12 282.9 1.46C282.91 1.53 282.91 1.59 282.91 1.66C282.91 2.06 282.76 2.55 282.56 2.84C282.24 3.32 281.75 3.41 281.24 3.51C279.9 3.76 275.93 3.77 274.72 3.39C274.25 3.24 273.76 2.96 273.53 2.48C273.45 2.3 273.41 2.1 273.41 1.9C273.41 1.68 273.45 1.47 273.51 1.28C273.73 0.69 274.27 0.43 274.77 0.19ZM200.03 0.19C202.02 0.09 204.04 0.11 206.05 0.14C206.94 0.15 207.82 0.16 208.7 0.16C209.27 0.16 209.86 0.14 210.45 0.12C211.68 0.08 212.93 0.04 214.1 0.17C214.55 0.21 215.06 0.33 215.44 0.62C215.75 0.86 215.95 1.19 216.01 1.6C216.02 1.68 216.02 1.76 216.02 1.83C216.02 2.18 215.91 2.51 215.7 2.8C215.33 3.3 214.95 3.41 214.39 3.5C213.2 3.78 211.29 3.69 209.61 3.6C208.89 3.57 208.21 3.53 207.65 3.53C206.9 3.53 206.14 3.55 205.38 3.57C203.99 3.61 202.6 3.65 201.22 3.56C200.63 3.52 200.01 3.42 199.45 3.18C199.01 2.98 198.72 2.76 198.53 2.27C198.52 2.21 198.52 2.15 198.52 2.09C198.52 1.94 198.54 1.81 198.6 1.66C198.92 0.85 199.27 0.51 200.03 0.19ZM35.55 4.27C36.02 4.26 36.57 4.23 37.17 4.2C39.04 4.1 41.31 3.98 42.64 4.48C43.07 4.64 43.41 4.97 43.6 5.41C43.67 5.59 43.71 5.76 43.71 5.94C43.71 6.12 43.67 6.29 43.61 6.46C43.35 7.12 42.9 7.38 42.31 7.63C42.15 7.64 41.97 7.65 41.78 7.66C39.94 7.77 36.9 7.96 35.45 7.51C35.01 7.38 34.58 7.08 34.36 6.64C34.27 6.44 34.23 6.23 34.23 6.02C34.23 5.83 34.26 5.65 34.32 5.47C34.54 4.81 35 4.56 35.55 4.27ZM55.22 4.27C55.77 4.26 56.35 4.23 56.95 4.2C58.7 4.11 60.58 4.01 62.13 4.41C62.55 4.51 62.98 4.72 63.2 5.14C63.31 5.35 63.36 5.58 63.36 5.81C63.36 5.99 63.33 6.17 63.28 6.34C63.11 6.99 62.7 7.28 62.18 7.58C60.52 7.82 57.06 7.94 55.5 7.51C54.75 7.3 54.1 6.98 53.69 6.25C53.69 6.21 53.69 6.16 53.68 6.11C53.67 6.03 53.66 5.94 53.66 5.85C53.66 5.79 53.67 5.74 53.68 5.7C53.92 5.07 54.67 4.53 55.22 4.27ZM117.26 4.31C118.98 4.12 123.62 3.87 125.04 4.82C125.37 5.04 125.53 5.27 125.62 5.68C125.59 6.18 125.45 6.54 125.19 6.94C124.87 7.43 124.39 7.49 123.88 7.58C123.12 7.92 118.5 7.76 117.62 7.54C117 7.38 116.47 7.12 116.13 6.51C116.06 6.4 116.04 6.22 116.04 6.03C116.04 5.87 116.06 5.71 116.08 5.6C116.25 4.92 116.73 4.64 117.26 4.31ZM195.92 4.31C197.62 4.12 202.35 3.86 203.75 4.83C204.04 5.03 204.23 5.28 204.3 5.64C204.31 5.7 204.31 5.75 204.31 5.81C204.31 6.21 204.07 6.63 203.86 6.94C203.54 7.43 203.08 7.49 202.56 7.58C201.88 7.9 198.02 7.74 197.13 7.64C196.23 7.53 195.27 7.24 194.68 6.45C194.67 6.41 194.66 6.36 194.64 6.32C194.61 6.2 194.57 6.07 194.57 5.95C194.57 5.92 194.57 5.89 194.58 5.87C194.75 5.13 195.35 4.69 195.92 4.31ZM274.62 4.31C276.35 4.12 280.99 3.88 282.4 4.81C282.74 5.04 282.9 5.27 283 5.68C282.96 6.18 282.81 6.54 282.55 6.94C282.22 7.43 281.76 7.49 281.24 7.58C280.48 7.92 275.86 7.76 274.98 7.54C274.36 7.38 273.83 7.12 273.49 6.51C273.43 6.4 273.4 6.21 273.4 6.03C273.4 5.87 273.42 5.71 273.45 5.6C273.62 4.93 274.1 4.64 274.62 4.31ZM258.86 4.31C260.5 4.14 265.02 3.87 266.4 4.75C266.87 5.04 267.16 5.41 267.29 5.99C267.27 6.24 267.24 6.52 267.08 6.72C266.67 7.24 266.04 7.54 265.42 7.6C264.47 7.9 260.29 7.8 259.23 7.54C258.62 7.39 258.1 7.13 257.75 6.54C257.71 6.35 257.68 6.17 257.68 5.99C257.68 5.85 257.69 5.72 257.73 5.57C257.88 4.91 258.36 4.64 258.86 4.31ZM148.72 4.31C150.06 4.16 155.27 3.92 156.37 4.68C156.69 4.9 156.89 5.22 156.95 5.62C156.97 5.73 156.98 5.84 156.98 5.95C156.98 6.28 156.9 6.62 156.73 6.88C156.39 7.37 155.91 7.49 155.38 7.57C154.62 7.92 150.1 7.76 149.18 7.56C148.57 7.42 147.97 7.17 147.62 6.58C147.53 6.44 147.5 6.26 147.5 6.08C147.5 5.93 147.53 5.77 147.56 5.64C147.72 4.92 148.17 4.66 148.72 4.31ZM211.67 4.31C212.95 4.17 218.23 3.93 219.28 4.66C219.61 4.89 219.8 5.2 219.88 5.61C219.9 5.74 219.92 5.88 219.92 6.02C219.92 6.32 219.85 6.61 219.7 6.85C219.36 7.38 218.8 7.51 218.24 7.6C217.36 7.9 213.13 7.79 212.11 7.56C211.46 7.42 210.93 7.16 210.55 6.54C210.5 6.35 210.48 6.17 210.48 5.99C210.48 5.86 210.49 5.71 210.53 5.56C210.68 4.9 211.17 4.64 211.67 4.31ZM231.32 4.31C233.5 4.18 235.71 4.21 237.9 4.23C238.8 4.25 239.7 4.26 240.59 4.26C241.12 4.26 241.66 4.23 242.2 4.21C243.19 4.16 244.18 4.12 245.12 4.21C245.66 4.27 246.22 4.42 246.69 4.72C247.06 4.95 247.49 5.36 247.57 5.82C247.59 5.91 247.6 5.99 247.6 6.07C247.6 6.31 247.53 6.54 247.38 6.74C247.02 7.22 246.46 7.49 245.9 7.57C245.81 7.6 245.72 7.63 245.63 7.64C244.58 7.8 243.39 7.76 242.24 7.72C241.71 7.7 241.18 7.68 240.68 7.68C239.88 7.68 239.06 7.71 238.23 7.74C236.28 7.8 234.27 7.87 232.43 7.62C231.76 7.54 230.86 7.34 230.33 6.87C229.99 6.57 229.96 6.38 229.91 5.94C230.11 5.22 230.74 4.68 231.32 4.31ZM132.98 4.31C134.98 4.14 143.43 3.93 144.71 4.81C144.99 5 145.21 5.28 145.27 5.63C145.28 5.69 145.29 5.74 145.29 5.8C145.29 6.2 145.06 6.64 144.85 6.95C144.52 7.43 144.06 7.49 143.55 7.58C142.15 7.89 135.33 7.85 133.83 7.6C133.05 7.47 132.32 7.24 131.84 6.53C131.8 6.36 131.78 6.2 131.78 6.03C131.78 5.91 131.79 5.79 131.82 5.65C131.97 4.93 132.43 4.67 132.98 4.31ZM101.5 4.31C102.94 4.18 104.43 4.21 105.91 4.23C106.6 4.24 107.28 4.26 107.95 4.25C108.35 4.25 108.76 4.23 109.17 4.21C109.93 4.17 110.7 4.13 111.44 4.21C112 4.27 112.57 4.45 113.04 4.79C113.38 5.04 113.76 5.45 113.82 5.89C113.83 5.96 113.84 6.02 113.84 6.08C113.84 6.35 113.74 6.59 113.57 6.81C113.2 7.28 112.6 7.53 112.05 7.59C110.63 7.88 104.07 7.84 102.53 7.62C101.71 7.51 100.9 7.29 100.38 6.57C100.32 6.39 100.29 6.22 100.29 6.06C100.29 5.93 100.31 5.79 100.34 5.64C100.49 4.94 100.96 4.66 101.5 4.31ZM74.12 4.27C74.43 4.26 74.88 4.25 75.42 4.24C79.29 4.17 88.21 3.99 89.52 4.73C89.97 4.98 90.08 5.22 90.23 5.71C90.17 6.18 90.03 6.52 89.78 6.91C89.45 7.4 89.05 7.48 88.53 7.57C87.36 7.86 74.94 7.81 73.86 7.5C73.48 7.38 73.16 7.05 72.97 6.68C72.84 6.43 72.76 6.18 72.76 5.91C72.76 5.77 72.79 5.63 72.83 5.49C73.03 4.82 73.58 4.55 74.12 4.27ZM168.38 4.31C170.39 4.16 172.44 4.2 174.48 4.23C175.33 4.24 176.18 4.26 177.02 4.26C177.6 4.26 178.19 4.24 178.79 4.22C180.01 4.18 181.24 4.14 182.42 4.27C182.99 4.33 183.66 4.46 184.13 4.83C184.37 5.02 184.53 5.28 184.58 5.59C184.59 5.65 184.59 5.71 184.59 5.77C184.59 6.2 184.39 6.67 184.16 6.99C183.85 7.43 183.36 7.51 182.89 7.58C182.07 7.88 169.34 7.76 168.38 7.53C167.94 7.42 167.61 7.11 167.38 6.7C167.25 6.46 167.18 6.21 167.18 5.94C167.18 5.82 167.19 5.69 167.22 5.57C167.38 4.92 167.88 4.63 168.38 4.31ZM69.87 8.68C71.84 8.45 74.38 8.37 76.34 8.64C77.03 8.73 77.71 8.94 78.14 9.56C78.26 9.73 78.31 10.02 78.31 10.27C78.31 10.36 78.31 10.45 78.29 10.52C78.19 11.2 77.77 11.51 77.28 11.88C75.56 12.18 73.4 12.09 71.66 11.99C70.84 11.95 69.49 11.78 68.93 11.06C68.8 10.9 68.72 10.69 68.72 10.48C68.72 10.45 68.73 10.43 68.73 10.4C68.81 9.63 69.33 9.13 69.87 8.68ZM242.78 8.76C244.22 8.47 249.3 8.24 250.53 8.88C250.91 9.07 251.24 9.49 251.37 9.91C251.41 10.03 251.42 10.15 251.42 10.27C251.42 10.52 251.36 10.76 251.26 10.97C251.02 11.47 250.67 11.65 250.2 11.81C250.04 11.91 249.92 11.95 249.74 11.96C249.58 11.97 249.39 11.98 249.19 12C247.22 12.15 243.51 12.44 242.34 11.29C242.09 11.03 241.98 10.72 241.97 10.35L241.97 10.34C241.97 9.63 242.35 9.23 242.78 8.76ZM35.29 8.67C37.21 8.48 40.08 8.34 41.96 8.68C42.58 8.79 43.17 9 43.54 9.58C43.64 9.73 43.67 9.97 43.67 10.2C43.67 10.36 43.66 10.52 43.64 10.64C43.52 11.3 43.08 11.57 42.6 11.92C40.99 12.08 39.25 12.04 37.63 12.01L37.57 12.01C36.45 11.98 35.02 11.88 34.2 10.96C34.18 10.91 34.17 10.87 34.15 10.83C34.1 10.7 34.05 10.57 34.05 10.43C34.05 10.41 34.05 10.38 34.05 10.35C34.17 9.61 34.76 9.09 35.29 8.67ZM195.58 8.76C197.27 8.37 201.87 8.33 203.39 8.98C203.82 9.17 204.14 9.4 204.33 9.88C204.33 9.93 204.33 9.98 204.33 10.03C204.33 10.4 204.22 10.67 204.03 11C203.72 11.56 203.43 11.69 202.87 11.84C202.72 11.93 202.61 11.95 202.44 11.96C202.24 11.98 202 11.99 201.72 12.01C199.74 12.15 196.22 12.41 195.14 11.31C194.89 11.05 194.76 10.73 194.76 10.35L194.76 10.35C194.76 9.63 195.15 9.24 195.58 8.76ZM258.55 8.76C260.18 8.39 265.08 8.3 266.45 9.04C266.86 9.25 267.06 9.5 267.2 9.96C267.2 9.99 267.2 10.02 267.2 10.04C267.2 10.48 267.07 10.84 266.87 11.21C266.62 11.66 266.16 11.75 265.72 11.88C265.64 11.92 265.57 11.95 265.47 11.96C265.31 11.97 265.13 11.98 264.92 12C262.96 12.15 259.23 12.44 258.09 11.3C257.84 11.04 257.71 10.72 257.71 10.35L257.71 10.34C257.71 9.61 258.1 9.23 258.55 8.76ZM179.87 8.76C181.52 8.4 186.44 8.28 187.83 9.06C188.22 9.28 188.42 9.5 188.56 9.96C188.56 9.98 188.56 10 188.56 10.02C188.56 10.44 188.41 10.77 188.21 11.12C187.92 11.65 187.56 11.74 187.04 11.88C186.95 11.92 186.88 11.95 186.79 11.95C186.6 11.97 186.39 11.98 186.15 12C184.17 12.15 180.53 12.43 179.41 11.3C179.16 11.04 179.03 10.72 179.03 10.34L179.03 10.34C179.03 9.61 179.42 9.23 179.87 8.76ZM132.67 8.76C134.58 8.36 155.25 8.41 156.02 8.82C156.46 9.06 156.81 9.46 156.95 9.98C156.98 10.09 157 10.21 157 10.33C157 10.59 156.92 10.86 156.8 11.09C156.53 11.57 156.16 11.7 155.69 11.84C155.44 11.99 155.03 11.99 154.69 11.98C154.62 11.98 154.55 11.98 154.49 11.98C151.93 12.03 133 12.33 132.19 11.47C131.95 11.21 131.76 10.84 131.76 10.47C131.76 10.46 131.76 10.44 131.76 10.43C131.78 9.68 132.19 9.24 132.67 8.76ZM227.06 8.76C228.57 8.41 233.3 8.32 234.71 8.91C235.19 9.11 235.48 9.36 235.7 9.87C235.71 9.96 235.71 10.04 235.71 10.12C235.71 10.49 235.61 10.82 235.44 11.15C235.2 11.59 234.79 11.7 234.37 11.83C234.18 11.96 234.03 11.96 233.82 11.97C233.57 11.98 233.27 12 232.93 12.02C230.93 12.17 227.68 12.4 226.6 11.28C226.35 11.03 226.24 10.72 226.24 10.35L226.24 10.33C226.24 9.64 226.61 9.25 227.03 8.79L227.06 8.76ZM274.26 8.76C275.75 8.42 280.74 8.32 282.09 8.98C282.51 9.19 282.76 9.44 282.92 9.91C282.93 9.96 282.93 10.01 282.93 10.06C282.93 10.46 282.83 10.8 282.63 11.15C282.39 11.61 282 11.72 281.55 11.84C281.4 11.94 281.29 11.96 281.12 11.96C280.9 11.98 280.64 11.99 280.36 12.01C278.37 12.16 274.89 12.4 273.82 11.31C273.57 11.05 273.44 10.73 273.44 10.35C273.44 9.63 273.83 9.24 274.26 8.76ZM101.18 8.76C102.97 8.41 123.86 8.42 124.61 8.83C125.01 9.05 125.33 9.47 125.46 9.92C125.48 9.96 125.49 10.01 125.5 10.06C125.51 10.11 125.51 10.16 125.52 10.2C125.52 10.25 125.52 10.3 125.52 10.34L125.52 10.35C125.52 10.4 125.52 10.45 125.52 10.5C125.51 10.54 125.5 10.59 125.49 10.64C125.48 10.69 125.47 10.74 125.46 10.78C125.44 10.83 125.43 10.87 125.41 10.92C125.39 10.96 125.37 11.01 125.35 11.05C125.07 11.56 124.69 11.71 124.18 11.84C123.98 11.97 123.65 11.97 123.38 11.97C123.32 11.97 123.25 11.97 123.2 11.97C120.18 12.08 117.13 12.05 114.09 12.02C112.69 12.01 111.28 11.99 109.89 11.99C109.13 11.99 108.35 12.01 107.56 12.04C105.53 12.1 103.42 12.16 101.54 11.84C101.11 11.77 100.93 11.63 100.62 11.31C100.4 11.09 100.3 10.81 100.3 10.48L100.3 10.47C100.31 9.69 100.7 9.26 101.18 8.76ZM85.42 8.75C86.62 8.5 92.07 8.34 93.1 8.83C93.51 9.03 93.83 9.37 93.99 9.84C94.04 9.99 94.07 10.15 94.07 10.31C94.07 10.52 94.02 10.73 93.93 10.92C93.68 11.45 93.33 11.64 92.83 11.81C92.63 11.93 92.47 11.95 92.25 11.97C92.02 11.98 91.75 12 91.44 12.02C89.45 12.16 86.04 12.4 84.97 11.29C84.72 11.03 84.61 10.73 84.61 10.36L84.61 10.34C84.61 9.63 84.98 9.23 85.42 8.75ZM164.1 8.76C165.52 8.47 170.37 8.37 171.69 8.84C172.17 9.01 172.48 9.25 172.71 9.75C172.73 9.88 172.74 10.01 172.74 10.14C172.74 10.44 172.68 10.73 172.54 11.03C172.33 11.51 171.95 11.65 171.52 11.81C171.29 11.95 171.1 11.96 170.85 11.97C170.6 11.98 170.3 12 169.96 12.02C167.98 12.16 164.71 12.38 163.65 11.29C163.4 11.03 163.29 10.72 163.29 10.36L163.29 10.34C163.3 9.63 163.66 9.23 164.1 8.76ZM54.96 8.68C56.73 8.5 58.71 8.5 60.49 8.6C61.49 8.66 62.7 8.84 63.41 9.69C63.42 9.72 63.44 9.76 63.45 9.79C63.49 9.91 63.53 10.03 63.53 10.16C63.53 10.18 63.53 10.2 63.53 10.23C63.43 10.93 62.86 11.47 62.36 11.87C60.58 12.18 57.65 12.2 55.86 11.95C55.14 11.85 54.47 11.63 54.01 10.99C53.93 10.75 53.88 10.54 53.88 10.31C53.88 10.21 53.89 10.11 53.91 10.01C54.02 9.35 54.48 9.03 54.96 8.68ZM113.61 12.71C113.78 12.7 113.97 12.69 114.19 12.68C116.89 12.56 123.54 12.27 124.96 13.27C125.26 13.48 125.47 13.77 125.54 14.15C125.55 14.22 125.56 14.29 125.56 14.36C125.56 14.7 125.42 15.03 125.24 15.3C124.86 15.88 124.32 15.96 123.72 16.06C121.86 16.24 114.27 16.39 112.85 15.63C112.36 15.38 112.19 15.08 112.02 14.55C112.05 14.26 112.1 14.03 112.24 13.77C112.57 13.11 112.98 12.91 113.61 12.71ZM35.79 12.7C36.21 12.69 36.7 12.67 37.22 12.64C39.04 12.54 41.33 12.42 42.56 12.99C43.01 13.19 43.61 13.6 43.77 14.11C43.81 14.24 43.83 14.36 43.83 14.47C43.83 14.65 43.78 14.83 43.68 15C43.35 15.59 42.71 15.91 42.12 16.08C41.69 16.08 41.18 16.11 40.64 16.14C38.67 16.26 36.17 16.4 34.82 15.61C34.51 15.43 34.25 15.18 34.15 14.82C34.13 14.72 34.12 14.63 34.12 14.54C34.12 14.24 34.25 13.97 34.39 13.7C34.74 13.05 35.16 12.88 35.79 12.7ZM164.77 12.71C167.94 12.59 171.12 12.63 174.3 12.66C175.81 12.67 177.31 12.69 178.81 12.69C179.58 12.69 180.46 12.66 181.38 12.63C183.09 12.57 184.92 12.51 186.26 12.63C186.75 12.67 187.26 12.83 187.67 13.13C188.05 13.39 188.39 13.82 188.47 14.31C188.48 14.38 188.49 14.45 188.49 14.53C188.49 14.8 188.4 15.06 188.24 15.28C187.83 15.86 187.2 15.99 186.57 16.07C184.18 16.21 181.74 16.17 179.31 16.13C178.15 16.11 176.99 16.09 175.84 16.09C174.83 16.09 173.8 16.11 172.77 16.14C170.44 16.18 168.08 16.23 165.8 16.04C165.03 15.98 164.27 15.87 163.56 15.51C163.45 15.39 163.41 15.27 163.36 15.11C163.29 14.87 163.25 14.63 163.25 14.4C163.25 14.15 163.3 13.9 163.43 13.66C163.73 13.09 164.22 12.88 164.77 12.71ZM55.48 12.7C55.87 12.69 56.34 12.67 56.84 12.64C58.76 12.54 61.25 12.42 62.55 13.06C62.9 13.23 63.23 13.49 63.36 13.89C63.4 14.01 63.41 14.13 63.41 14.25C63.41 14.54 63.31 14.85 63.19 15.1C62.9 15.69 62.4 15.89 61.85 16.07C61.48 16.08 61.03 16.1 60.53 16.13C58.56 16.23 55.8 16.37 54.6 15.66C54.28 15.47 53.99 15.2 53.89 14.81C53.87 14.72 53.86 14.62 53.86 14.52C53.86 14.17 53.98 13.79 54.13 13.52C54.42 12.99 54.96 12.84 55.48 12.7ZM133.28 12.71C133.62 12.71 134.1 12.68 134.65 12.66C136.67 12.56 139.66 12.41 140.65 13.14C141.01 13.41 141.2 13.83 141.26 14.29C141.27 14.35 141.27 14.41 141.27 14.47C141.27 14.76 141.18 15.04 141.01 15.27C140.58 15.85 140.04 15.98 139.4 16.06C138.92 16.07 138.39 16.1 137.82 16.14C136.06 16.25 134.02 16.38 132.7 15.69C132.26 15.45 131.8 15.09 131.65 14.57C131.62 14.47 131.6 14.37 131.6 14.27C131.6 14.12 131.64 13.96 131.71 13.83C132 13.29 132.74 12.87 133.28 12.71ZM200.17 12.71C202.2 12.62 204.26 12.64 206.31 12.67C207.31 12.68 208.32 12.69 209.32 12.69C209.85 12.69 210.39 12.66 210.94 12.63C211.97 12.58 213.01 12.53 213.97 12.64C214.41 12.7 214.88 12.85 215.25 13.13C215.62 13.41 215.95 13.82 216.02 14.31C216.03 14.38 216.04 14.44 216.04 14.5C216.04 14.78 215.94 15.07 215.77 15.3C215.38 15.82 214.83 15.97 214.24 16.05C212.45 16.26 200.48 16.3 199.5 15.8C199.14 15.61 198.87 15.25 198.74 14.84C198.7 14.68 198.67 14.52 198.67 14.35C198.67 14.09 198.73 13.83 198.84 13.62C199.14 13.06 199.63 12.88 200.17 12.71ZM101.85 12.71C102.18 12.7 102.61 12.68 103.1 12.66C105.14 12.56 108.22 12.42 109.3 13.22C109.57 13.42 109.74 13.69 109.8 14.03C109.81 14.09 109.81 14.15 109.81 14.22C109.81 14.63 109.63 15.14 109.41 15.44C109.05 15.94 108.42 15.99 107.89 16.07C107.47 16.08 106.99 16.1 106.48 16.13C104.64 16.24 102.41 16.37 101.05 15.68C100.73 15.52 100.39 15.25 100.28 14.86C100.25 14.77 100.24 14.67 100.24 14.58C100.24 14.24 100.37 13.89 100.52 13.62C100.82 13.04 101.29 12.87 101.85 12.71ZM227.7 12.71C230.74 12.6 233.8 12.63 236.85 12.66C238.25 12.68 239.65 12.69 241.05 12.69C241.92 12.69 242.8 12.67 243.69 12.64C245.49 12.59 247.31 12.54 249.05 12.69C249.7 12.75 250.5 12.88 251.05 13.3C251.3 13.49 251.45 13.74 251.5 14.06C251.51 14.11 251.51 14.16 251.51 14.21C251.51 14.62 251.3 15.03 251.08 15.35C250.69 15.91 250.18 15.97 249.58 16.06C246.91 16.23 244.17 16.18 241.45 16.12C240.18 16.1 238.92 16.07 237.67 16.07C236.64 16.06 235.59 16.09 234.54 16.12C232.59 16.17 230.62 16.23 228.7 16.08C228.1 16.04 227.47 15.93 226.92 15.63C226.57 15.44 226.27 15.19 226.15 14.78C226.13 14.7 226.12 14.61 226.12 14.53C226.12 14.27 226.22 14 226.33 13.78C226.66 13.14 227.07 12.91 227.7 12.71ZM145.1 12.71C146.28 12.66 147.48 12.67 148.67 12.68L148.67 12.68C149.36 12.68 150.05 12.69 150.74 12.68C151.14 12.68 151.56 12.66 151.97 12.64C152.91 12.6 153.87 12.55 154.76 12.68C155.36 12.77 155.97 12.96 156.46 13.34C156.85 13.65 157.05 13.98 157.12 14.5C157.09 14.74 157.04 14.96 156.9 15.16C156.43 15.78 155.77 16 155.06 16.07C154.6 16.07 153.97 16.1 153.23 16.12C150.28 16.23 145.67 16.4 144.29 15.61C143.9 15.39 143.66 15.14 143.53 14.69C143.51 14.64 143.51 14.58 143.51 14.52C143.51 14.24 143.65 13.89 143.76 13.68C144.06 13.07 144.52 12.9 145.1 12.71ZM70.38 12.7C73.25 12.63 76.12 12.65 79 12.66L79 12.66C80.45 12.67 81.9 12.68 83.35 12.67C84.2 12.67 85.06 12.66 85.93 12.64C88 12.6 90.1 12.56 92.13 12.72C92.55 12.76 92.96 12.81 93.33 13.06C93.67 13.29 93.93 13.69 94.01 14.12C94.03 14.21 94.04 14.3 94.04 14.39C94.04 14.73 93.93 15.1 93.75 15.36C93.38 15.89 92.79 15.97 92.22 16.06C89.55 16.25 86.81 16.19 84.08 16.14C82.89 16.11 81.7 16.09 80.53 16.08C79.38 16.08 78.23 16.1 77.06 16.13L77.06 16.13C75.07 16.18 73.07 16.22 71.12 16.11C70.64 16.09 70.11 16 69.67 15.77C69.31 15.57 69.02 15.27 68.9 14.84C68.86 14.7 68.84 14.54 68.84 14.38C68.84 14.12 68.89 13.86 69.01 13.64C69.3 13.09 69.84 12.85 70.38 12.7ZM263.12 12.71L271.21 12.69C271.72 12.69 272.24 12.67 272.77 12.65C274.11 12.61 275.48 12.56 276.77 12.72C277.39 12.8 278.22 12.96 278.7 13.42C278.94 13.64 279.05 13.84 279.07 14.16C279.07 14.19 279.07 14.22 279.07 14.24C279.07 14.68 278.8 15.08 278.54 15.41C278.08 16 277.57 16.01 276.9 16.08C276.52 16.08 275.8 16.09 274.89 16.11C271 16.18 263.48 16.31 262.54 15.79C262.13 15.56 261.76 15.18 261.63 14.69C261.6 14.57 261.58 14.45 261.58 14.33C261.58 14.11 261.64 13.89 261.74 13.69C262.03 13.12 262.56 12.87 263.12 12.71ZM47.31 12.7C47.48 12.69 47.65 12.68 47.83 12.67C48.6 12.63 49.43 12.58 50.14 12.83C50.8 13.06 51.3 13.37 51.63 14.05C51.63 14.1 51.63 14.14 51.64 14.19C51.65 14.28 51.65 14.37 51.65 14.45C51.65 14.6 51.63 14.74 51.55 14.92C51.28 15.52 50.79 15.87 50.21 16.08C50.03 16.08 49.84 16.09 49.65 16.1C48.8 16.14 47.88 16.18 47.09 15.92C46.7 15.79 46.31 15.56 46.12 15.15C46.03 14.96 46 14.75 46 14.53C46 14.26 46.05 13.99 46.14 13.76C46.35 13.18 46.8 12.93 47.31 12.7ZM117 17.16C118.63 16.85 123.33 16.72 124.69 17.4C125.02 17.56 125.36 17.83 125.48 18.22C125.52 18.35 125.53 18.49 125.53 18.63C125.53 18.94 125.46 19.26 125.33 19.51C125.08 19.99 124.67 20.16 124.2 20.29C123.31 20.57 121.97 20.52 120.82 20.48C120.44 20.47 120.09 20.46 119.78 20.46C119.71 20.46 119.63 20.46 119.55 20.46C118.49 20.46 117.07 20.47 116.32 19.62C116.12 19.4 116.04 19.14 116.04 18.85C116.04 18.82 116.04 18.79 116.04 18.76C116.09 18.01 116.51 17.6 117 17.16ZM179.91 17.16C181.55 16.83 186.49 16.71 187.89 17.63C188.21 17.84 188.54 18.16 188.62 18.57C188.64 18.67 188.66 18.76 188.66 18.85C188.66 19.02 188.61 19.17 188.5 19.34C188.2 19.8 187.65 20.18 187.14 20.28C187 20.33 186.87 20.37 186.73 20.38C186.51 20.39 186.24 20.41 185.95 20.43C183.93 20.59 180.5 20.85 179.37 19.7C179.13 19.47 179.01 19.15 179.01 18.81L179.01 18.79C179.02 18.04 179.44 17.63 179.91 17.16ZM85.51 17.15C87.08 16.86 91.66 16.76 93.09 17.34C93.56 17.54 93.88 17.78 94.09 18.29C94.1 18.37 94.11 18.45 94.11 18.53C94.11 18.9 93.99 19.21 93.82 19.55C93.57 20.03 93.16 20.14 92.7 20.29C91.93 20.6 89.93 20.53 88.61 20.49C88.3 20.48 88.02 20.47 87.81 20.47C86.87 20.46 85.6 20.44 84.9 19.64C84.7 19.4 84.6 19.11 84.6 18.79C84.6 18.77 84.6 18.74 84.6 18.71C84.64 17.98 85.04 17.6 85.51 17.15ZM101.22 17.15C102.84 16.85 107.72 16.71 109.1 17.56C109.44 17.77 109.83 18.09 109.92 18.51C109.94 18.63 109.96 18.73 109.96 18.84C109.96 19.01 109.92 19.17 109.81 19.33C109.51 19.8 108.97 20.18 108.45 20.29C107.68 20.6 105.84 20.54 104.49 20.49C104.1 20.48 103.75 20.47 103.47 20.47C102.57 20.47 101.32 20.42 100.65 19.66C100.43 19.42 100.34 19.13 100.34 18.8C100.34 18.78 100.34 18.76 100.34 18.75C100.36 18.01 100.77 17.63 101.22 17.15ZM148.44 17.16C149.85 16.87 154.88 16.76 156.09 17.34C156.45 17.51 156.79 17.79 156.92 18.22C156.97 18.36 156.99 18.51 156.99 18.68C156.99 18.97 156.92 19.27 156.81 19.5C156.58 19.98 156.14 20.13 155.69 20.28C155.14 20.57 153.27 20.52 152.02 20.48C151.68 20.48 151.38 20.47 151.17 20.47C151.12 20.47 151.07 20.47 151.02 20.47C150.02 20.48 148.56 20.48 147.86 19.65C147.62 19.37 147.55 19.08 147.55 18.73C147.55 18.69 147.55 18.64 147.55 18.59C147.58 17.97 148.04 17.55 148.44 17.16ZM35.3 17.09C38.9 16.89 42.56 16.94 46.2 16.99L46.2 16.99C47.87 17.02 49.54 17.04 51.19 17.04C52.18 17.04 53.26 17.01 54.37 16.98L54.37 16.98C56.86 16.92 59.5 16.85 61.62 17.08C62.16 17.13 62.76 17.3 63.11 17.79C63.28 18.03 63.35 18.3 63.35 18.59C63.35 18.68 63.35 18.76 63.34 18.85C63.24 19.57 62.87 19.91 62.36 20.32C61.28 20.46 60.14 20.44 59.02 20.42L59.02 20.42C58.64 20.42 58.27 20.41 57.9 20.41L41.11 20.42C40.66 20.42 40.22 20.42 39.77 20.43C38.46 20.45 37.15 20.46 35.87 20.33C35.32 20.28 34.81 20.14 34.45 19.65C34.28 19.42 34.21 19.19 34.21 18.92C34.21 18.85 34.22 18.76 34.23 18.68C34.34 17.88 34.74 17.54 35.3 17.09ZM164.2 17.16C165.66 16.88 170.66 16.75 171.97 17.38C172.31 17.55 172.6 17.78 172.72 18.16C172.76 18.28 172.77 18.4 172.77 18.52C172.77 18.89 172.64 19.28 172.48 19.59C172.25 20.03 171.81 20.15 171.38 20.28C170.63 20.59 168.73 20.53 167.45 20.49C167.13 20.48 166.85 20.47 166.64 20.47L166.57 20.47C165.59 20.46 164.3 20.45 163.58 19.64C163.38 19.4 163.28 19.11 163.28 18.79C163.28 18.77 163.28 18.74 163.28 18.71C163.32 17.99 163.72 17.6 164.2 17.16ZM266.46 17.16C267.83 16.96 272.97 16.7 274.05 17.28C274.46 17.49 274.82 17.86 274.96 18.32C275 18.45 275.02 18.59 275.02 18.72C275.02 18.98 274.95 19.24 274.82 19.48C274.56 19.98 274.19 20.13 273.71 20.28C273.17 20.57 271.32 20.52 270.09 20.48C269.75 20.48 269.45 20.47 269.24 20.47C269.19 20.47 269.13 20.47 269.06 20.47C268.05 20.48 266.58 20.49 265.88 19.65C265.64 19.37 265.57 19.08 265.57 18.73C265.57 18.69 265.57 18.64 265.57 18.59C265.6 17.97 266.07 17.55 266.46 17.16ZM242.88 17.16C244.22 16.89 249.46 16.75 250.63 17.38C250.99 17.57 251.28 17.98 251.39 18.39C251.42 18.5 251.43 18.61 251.43 18.72C251.43 18.97 251.36 19.22 251.24 19.44C250.96 19.97 250.59 20.14 250.07 20.28C249.32 20.59 247.41 20.53 246.13 20.49C245.81 20.48 245.53 20.47 245.32 20.47L245.25 20.47C244.27 20.46 242.98 20.45 242.27 19.64C242.06 19.4 241.96 19.11 241.96 18.79C241.96 18.77 241.96 18.74 241.96 18.71C242 17.98 242.4 17.6 242.88 17.16ZM211.4 17.16C212.87 16.88 217.86 16.78 219.2 17.41C219.61 17.61 219.85 17.83 220.01 18.28C220.01 18.33 220.01 18.38 220.01 18.43C220.01 18.84 219.89 19.18 219.69 19.56C219.44 20.04 219.07 20.14 218.6 20.28C218.03 20.53 217.09 20.5 216.29 20.47C216.01 20.46 215.75 20.45 215.53 20.45C215.32 20.46 215.09 20.47 214.84 20.48C213.48 20.54 211.68 20.62 210.81 19.66C210.59 19.42 210.49 19.13 210.49 18.8C210.49 18.79 210.49 18.77 210.5 18.75C210.52 18 210.91 17.63 211.4 17.16ZM132.71 17.16C134.13 16.92 139.23 16.76 140.43 17.34C140.77 17.51 141.08 17.75 141.21 18.15C141.25 18.28 141.27 18.43 141.27 18.59C141.27 18.92 141.18 19.29 141.05 19.55C140.81 20.02 140.36 20.15 139.92 20.29C139.35 20.52 138.44 20.49 137.67 20.46C137.39 20.45 137.13 20.44 136.91 20.45C136.7 20.45 136.46 20.46 136.21 20.47C134.83 20.54 133 20.62 132.13 19.66C131.91 19.42 131.81 19.14 131.81 18.8C131.81 18.79 131.81 18.77 131.81 18.75C131.84 18 132.23 17.63 132.71 17.16ZM227.11 17.16C228.23 16.93 233.88 16.78 234.74 17.24C235.13 17.45 235.46 17.79 235.6 18.24C235.61 18.29 235.62 18.35 235.63 18.4C235.64 18.45 235.65 18.5 235.66 18.55C235.66 18.61 235.66 18.66 235.66 18.71C235.66 18.77 235.66 18.82 235.66 18.87C235.65 18.93 235.65 18.98 235.64 19.03Q235.63 19.07 235.62 19.12L235.62 19.12Q235.61 19.15 235.6 19.19C235.58 19.24 235.57 19.29 235.55 19.34C235.53 19.38 235.51 19.43 235.48 19.48C235.22 19.98 234.85 20.13 234.37 20.28C233.86 20.55 232.77 20.51 231.92 20.47C231.63 20.46 231.36 20.45 231.16 20.46C230.96 20.46 230.74 20.47 230.51 20.48C229.17 20.53 227.42 20.61 226.54 19.65C226.33 19.41 226.22 19.11 226.22 18.78C226.22 18.77 226.22 18.76 226.22 18.75C226.24 18.02 226.66 17.62 227.11 17.16ZM69.9 17.09C71.8 16.93 73.98 16.89 75.87 17.07C76.57 17.13 77.83 17.37 78.27 18.01C78.39 18.18 78.46 18.38 78.46 18.58C78.46 18.63 78.46 18.67 78.45 18.72C78.36 19.37 77.78 19.94 77.31 20.32C75.44 20.55 70.95 20.79 69.35 19.84C68.92 19.59 68.82 19.35 68.69 18.87C68.8 18.06 69.33 17.57 69.9 17.09ZM101.19 21.27C102.95 20.91 107.2 20.85 108.82 21.44C109.39 21.65 109.66 21.9 109.92 22.48C109.92 22.5 109.92 22.52 109.92 22.55C109.92 22.93 109.78 23.22 109.6 23.55C109.27 24.14 108.95 24.25 108.36 24.4C108.27 24.45 108.2 24.47 108.1 24.48C107.89 24.49 107.64 24.51 107.36 24.53C105.36 24.68 101.85 24.93 100.73 23.82C100.48 23.56 100.35 23.24 100.35 22.86L100.35 22.85C100.35 22.15 100.72 21.76 101.15 21.31L101.19 21.27ZM179.88 21.27C181.62 20.9 185.9 20.86 187.5 21.44C188.07 21.65 188.34 21.9 188.6 22.48C188.6 22.5 188.6 22.52 188.6 22.55C188.6 22.93 188.46 23.22 188.28 23.55C187.95 24.14 187.63 24.25 187.05 24.4C186.95 24.45 186.88 24.47 186.78 24.48C186.57 24.49 186.32 24.51 186.04 24.53C184.04 24.67 180.54 24.93 179.42 23.82C179.16 23.56 179.03 23.24 179.03 22.86L179.03 22.86C179.03 22.15 179.4 21.76 179.84 21.31L179.88 21.27ZM69.87 21.2C71.86 21 74.36 20.89 76.34 21.16C77.03 21.26 77.7 21.47 78.14 22.08C78.26 22.26 78.31 22.55 78.31 22.8C78.31 22.89 78.3 22.97 78.29 23.04C78.2 23.72 77.77 24.03 77.29 24.41C75.54 24.69 73.42 24.61 71.65 24.52C70.83 24.47 69.49 24.31 68.92 23.58C68.8 23.42 68.72 23.21 68.72 23C68.72 22.97 68.73 22.95 68.73 22.92C68.81 22.14 69.33 21.66 69.87 21.2ZM116.91 21.27C118.62 20.9 123.18 20.85 124.7 21.51C125.14 21.7 125.45 21.92 125.64 22.4C125.64 22.46 125.65 22.51 125.65 22.57C125.65 22.93 125.53 23.19 125.35 23.52C125.05 24.08 124.75 24.21 124.18 24.37C124.03 24.46 123.92 24.48 123.75 24.49C123.54 24.5 123.27 24.52 122.98 24.54C120.99 24.68 117.52 24.92 116.45 23.83C116.2 23.57 116.08 23.26 116.08 22.88L116.08 22.87C116.08 22.14 116.47 21.75 116.91 21.27ZM195.59 21.27C197.29 20.9 201.87 20.85 203.38 21.51C203.82 21.69 204.13 21.92 204.32 22.4C204.33 22.46 204.33 22.51 204.33 22.56C204.33 22.93 204.22 23.19 204.04 23.52C203.73 24.08 203.43 24.21 202.87 24.37C202.69 24.47 202.56 24.48 202.36 24.49C202.12 24.5 201.82 24.52 201.48 24.54C199.49 24.68 196.18 24.91 195.14 23.83C194.89 23.57 194.76 23.25 194.76 22.88L194.76 22.87C194.77 22.14 195.15 21.75 195.59 21.27ZM35.29 21.2C38.2 20.94 42 20.97 44.94 21.13C45.69 21.17 47.04 21.35 47.56 22.04C47.69 22.22 47.78 22.43 47.78 22.66C47.78 22.7 47.77 22.74 47.77 22.78C47.67 23.45 47.07 24.04 46.6 24.43C45.56 24.54 44.5 24.53 43.45 24.52C43.07 24.52 42.69 24.51 42.32 24.52C41.95 24.52 41.48 24.54 40.97 24.56C38.7 24.67 35.44 24.83 34.23 23.55C34.21 23.5 34.19 23.45 34.18 23.41C34.11 23.26 34.06 23.12 34.06 22.95C34.06 22.92 34.06 22.88 34.07 22.84C34.18 22.17 34.8 21.57 35.29 21.2ZM85.44 21.27C86.86 20.97 91.71 20.84 92.98 21.4C93.39 21.57 93.82 21.87 93.98 22.33C94.03 22.48 94.06 22.65 94.06 22.82C94.06 23.06 94 23.31 93.91 23.51C93.69 24 93.28 24.17 92.83 24.33C92.7 24.42 92.58 24.47 92.42 24.48C92.32 24.49 92.22 24.49 92.1 24.5C90.22 24.65 86.16 24.98 84.97 23.82C84.72 23.58 84.59 23.26 84.59 22.91L84.59 22.9C84.59 22.17 84.99 21.75 85.44 21.27ZM164.12 21.27C165.53 20.97 170.4 20.85 171.66 21.4C172.07 21.57 172.5 21.87 172.66 22.33C172.71 22.48 172.74 22.65 172.74 22.82C172.74 23.06 172.69 23.3 172.6 23.51C172.37 24 171.96 24.17 171.51 24.33C171.38 24.42 171.26 24.47 171.11 24.48C171.01 24.49 170.9 24.49 170.78 24.5C168.91 24.65 164.84 24.98 163.65 23.82C163.4 23.58 163.27 23.26 163.27 22.91L163.27 22.91C163.27 22.17 163.67 21.75 164.12 21.27ZM242.81 21.27C244.22 20.97 249.08 20.85 250.35 21.4C250.75 21.57 251.18 21.87 251.34 22.33C251.39 22.49 251.42 22.65 251.42 22.83C251.42 23.06 251.37 23.31 251.28 23.51C251.06 24 250.64 24.17 250.2 24.33C250.06 24.42 249.95 24.47 249.79 24.48C249.69 24.49 249.58 24.49 249.47 24.5C247.59 24.65 243.53 24.98 242.33 23.82C242.09 23.58 241.95 23.26 241.95 22.91C241.95 22.17 242.35 21.75 242.81 21.27ZM50.97 21.21C53.95 20.92 57.23 21.02 60.24 21.12L60.36 21.12C61.21 21.15 62.74 21.28 63.32 22.02C63.46 22.2 63.55 22.41 63.55 22.64C63.55 22.68 63.55 22.73 63.54 22.78C63.44 23.4 62.83 24.05 62.36 24.4C59.95 24.73 55.12 24.64 52.62 24.52C51.89 24.48 50.6 24.3 50.1 23.64C49.95 23.44 49.86 23.21 49.86 22.97C49.86 22.93 49.86 22.9 49.87 22.86C49.94 22.16 50.49 21.62 50.97 21.21ZM132.68 21.27C134.32 20.97 139.14 20.83 140.56 21.52C140.97 21.72 141.18 21.94 141.33 22.4C141.34 22.45 141.34 22.5 141.34 22.54C141.34 22.97 141.17 23.36 140.97 23.73C140.72 24.17 140.3 24.27 139.86 24.39C139.74 24.45 139.65 24.48 139.52 24.49C139.31 24.5 139.07 24.51 138.79 24.53C136.82 24.67 133.27 24.92 132.19 23.81C131.94 23.56 131.82 23.25 131.82 22.88C131.82 22.88 131.82 22.87 131.82 22.86C131.83 22.12 132.21 21.74 132.68 21.27ZM211.36 21.27C213.05 20.95 217.9 20.84 219.34 21.59C219.72 21.79 219.93 22.01 220.06 22.44C220.06 22.45 220.06 22.46 220.06 22.47C220.06 22.85 219.98 23.13 219.8 23.45C219.45 24.09 219.18 24.21 218.54 24.4C218.43 24.45 218.33 24.48 218.2 24.49C217.99 24.5 217.75 24.52 217.47 24.54C215.49 24.67 211.95 24.92 210.87 23.82C210.62 23.56 210.5 23.25 210.5 22.89C210.5 22.88 210.5 22.87 210.5 22.86C210.52 22.12 210.89 21.74 211.36 21.27ZM148.39 21.27C149.46 21.06 155.16 20.85 156.06 21.35C156.46 21.58 156.81 21.95 156.93 22.42C156.95 22.47 156.96 22.52 156.97 22.57C156.98 22.62 156.98 22.67 156.99 22.72C156.99 22.76 156.99 22.8 156.99 22.84C156.99 22.85 156.99 22.86 156.99 22.87C156.99 22.92 156.99 22.97 156.98 23.02C156.97 23.07 156.97 23.12 156.96 23.17C156.95 23.22 156.93 23.27 156.92 23.32C156.9 23.36 156.89 23.41 156.87 23.46C156.85 23.5 156.83 23.55 156.8 23.59C156.54 24.08 156.17 24.23 155.69 24.36C155.53 24.46 155.4 24.48 155.22 24.49C154.99 24.5 154.72 24.52 154.41 24.54C152.4 24.69 149.02 24.93 147.91 23.81C147.66 23.55 147.55 23.24 147.55 22.87L147.55 22.86C147.56 22.14 147.95 21.75 148.39 21.27ZM266.42 21.27C267.82 21.02 273.06 20.87 274.21 21.46C274.54 21.63 274.85 21.89 274.96 22.27C275 22.4 275.02 22.55 275.02 22.69C275.02 23.03 274.93 23.39 274.79 23.67C274.56 24.11 274.13 24.24 273.71 24.36C273.55 24.46 273.42 24.48 273.24 24.49C273.01 24.5 272.74 24.52 272.43 24.54C270.43 24.69 267.04 24.93 265.94 23.81C265.68 23.55 265.58 23.25 265.58 22.88L265.58 22.86C265.58 22.14 265.97 21.75 266.42 21.27ZM227.07 21.27C228.48 21.02 233.72 20.87 234.87 21.46C235.19 21.63 235.51 21.89 235.62 22.27C235.66 22.4 235.68 22.55 235.68 22.69C235.68 23.03 235.58 23.39 235.44 23.67C235.22 24.11 234.79 24.24 234.37 24.36C234.21 24.46 234.08 24.48 233.9 24.49C233.67 24.5 233.4 24.52 233.09 24.54C231.09 24.69 227.7 24.93 226.6 23.81C226.34 23.55 226.24 23.25 226.24 22.88L226.24 22.86C226.24 22.14 226.63 21.75 227.07 21.27ZM35.41 25.49C35.96 25.48 36.56 25.44 37.17 25.41C38.86 25.32 40.7 25.22 42.16 25.56C42.65 25.68 43.25 25.95 43.52 26.43C43.63 26.64 43.68 26.9 43.68 27.16C43.68 27.32 43.66 27.49 43.62 27.64C43.45 28.25 42.98 28.51 42.49 28.78C40.59 28.98 37.72 29.14 35.86 28.76C35.27 28.64 34.71 28.42 34.36 27.86C34.26 27.7 34.22 27.48 34.22 27.26C34.22 27.1 34.24 26.94 34.27 26.81C34.41 26.13 34.9 25.83 35.41 25.49ZM70.02 25.49C70.53 25.48 71.12 25.45 71.74 25.42C73.59 25.32 75.76 25.21 77.13 25.62C77.57 25.75 77.94 26.05 78.16 26.49C78.26 26.7 78.31 26.91 78.31 27.13C78.31 27.29 78.29 27.45 78.24 27.61C78.04 28.22 77.65 28.48 77.15 28.76C75.29 29 72.25 29.14 70.44 28.75C69.88 28.63 69.31 28.4 68.99 27.87C68.88 27.7 68.83 27.45 68.83 27.21C68.83 27.07 68.85 26.94 68.87 26.83C69.02 26.15 69.52 25.85 70.02 25.49ZM164.24 25.56C165.84 25.29 170.58 25.13 171.89 25.83C172.25 26.01 172.59 26.3 172.71 26.72C172.74 26.83 172.76 26.95 172.76 27.07C172.76 27.39 172.66 27.73 172.52 27.99C172.26 28.47 171.81 28.6 171.35 28.74C170.93 28.84 170.49 28.85 170.05 28.86C169.96 28.86 169.86 28.86 169.77 28.86C169.53 28.87 169.23 28.89 168.9 28.9C167.17 29.01 164.51 29.16 163.54 28.08C163.34 27.85 163.26 27.57 163.26 27.27C163.26 27.23 163.26 27.19 163.27 27.15C163.32 26.4 163.74 26.01 164.24 25.56ZM132.78 25.56C134.38 25.29 139.19 25.12 140.52 25.88C140.83 26.06 141.15 26.34 141.25 26.72C141.27 26.82 141.28 26.93 141.28 27.04C141.28 27.4 141.15 27.77 140.99 28.07C140.74 28.52 140.28 28.62 139.85 28.75C138.29 29.12 135.83 28.98 134.23 28.86C133.54 28.81 132.42 28.61 131.96 27.98C131.81 27.77 131.76 27.56 131.76 27.32C131.76 27.27 131.76 27.21 131.77 27.15C131.83 26.41 132.28 26.01 132.78 25.56ZM227.21 25.56C228.81 25.3 233.67 25.12 234.98 25.9C235.36 26.13 235.57 26.39 235.69 26.84C235.71 26.89 235.71 26.96 235.71 27.03C235.71 27.36 235.56 27.79 235.44 28.02C235.16 28.51 234.7 28.63 234.21 28.76C233.13 29 231.78 28.96 230.57 28.92C230.23 28.91 229.91 28.9 229.6 28.9C228.47 28.88 227.21 28.86 226.37 27.94C226.27 27.73 226.17 27.51 226.17 27.27C226.17 27.24 226.17 27.22 226.18 27.19C226.24 26.42 226.69 26.01 227.21 25.56ZM148.53 25.56C150.12 25.3 154.98 25.12 156.3 25.9C156.68 26.13 156.89 26.39 157.01 26.84C157.02 26.89 157.03 26.96 157.03 27.03C157.03 27.36 156.88 27.79 156.75 28.02C156.48 28.51 156.02 28.63 155.53 28.76C154.45 29 153.1 28.96 151.89 28.92C151.55 28.91 151.22 28.9 150.92 28.9C149.78 28.89 148.53 28.86 147.68 27.94C147.58 27.72 147.49 27.51 147.49 27.27C147.49 27.24 147.49 27.22 147.49 27.19C147.56 26.42 148.01 26.01 148.53 25.56ZM266.55 25.56C268.15 25.3 273.01 25.12 274.32 25.9C274.7 26.13 274.91 26.39 275.03 26.84C275.05 26.89 275.05 26.96 275.05 27.03C275.05 27.36 274.91 27.79 274.78 28.02C274.5 28.51 274.04 28.63 273.55 28.76C272.47 29 271.12 28.96 269.91 28.92C269.57 28.91 269.25 28.9 268.94 28.9C267.81 28.89 266.55 28.86 265.71 27.94C265.61 27.73 265.51 27.51 265.51 27.27C265.51 27.24 265.51 27.22 265.52 27.19C265.58 26.42 266.03 26.01 266.55 25.56ZM55.09 25.49C55.67 25.48 56.29 25.45 56.93 25.42C58.65 25.33 60.48 25.24 62.01 25.57C62.54 25.68 62.86 25.91 63.15 26.4C63.29 26.64 63.37 26.89 63.37 27.15C63.37 27.26 63.36 27.38 63.33 27.5C63.17 28.14 62.74 28.46 62.23 28.75C60.62 28.96 57.06 29.09 55.5 28.81C54.97 28.72 54.41 28.42 54.1 27.93C54.07 27.89 54.05 27.85 54.03 27.81C54.01 27.77 53.99 27.73 53.97 27.69C53.96 27.64 53.94 27.6 53.93 27.55C53.91 27.51 53.9 27.46 53.9 27.42C53.89 27.37 53.88 27.32 53.88 27.28Q53.87 27.24 53.87 27.21Q53.87 27.19 53.87 27.16C53.87 27.15 53.87 27.14 53.87 27.13C53.87 27.09 53.88 27.04 53.88 26.99C53.89 26.95 53.9 26.9 53.91 26.85C54.06 26.17 54.57 25.82 55.09 25.49ZM180.01 25.56C181.76 25.28 186.38 25.12 187.91 25.96C188.34 26.2 188.48 26.45 188.62 26.92C188.57 27.36 188.43 27.67 188.19 28.03C187.83 28.59 187.46 28.66 186.87 28.77C185.42 29.09 183.33 28.97 181.8 28.88L181.67 28.87C180.9 28.82 179.68 28.66 179.16 27.98C179.02 27.79 178.94 27.54 178.94 27.3C178.94 27.27 178.94 27.23 178.95 27.2C179.02 26.43 179.49 26.01 180.01 25.56ZM101.31 25.55C103.08 25.29 107.69 25.12 109.23 25.96C109.66 26.2 109.8 26.45 109.94 26.92C109.89 27.36 109.74 27.67 109.51 28.03C109.15 28.59 108.78 28.66 108.19 28.77C107.28 28.99 106.1 28.95 105.04 28.92C104.69 28.91 104.36 28.9 104.06 28.9C104 28.9 103.94 28.9 103.89 28.9C102.82 28.9 101.27 28.89 100.53 28.03C100.35 27.82 100.29 27.57 100.29 27.31C100.29 27.26 100.29 27.2 100.3 27.15C100.36 26.41 100.81 26 101.31 25.55ZM199.68 25.56C201.44 25.36 214.25 25.14 215.2 25.77C215.58 26.02 215.9 26.41 216.01 26.88C216.03 26.97 216.04 27.06 216.04 27.14C216.04 27.44 215.92 27.73 215.77 27.99C215.46 28.49 215.05 28.64 214.54 28.76C213.31 28.94 212.01 28.91 210.73 28.88C210.26 28.87 209.79 28.86 209.33 28.86C208.52 28.86 207.71 28.87 206.9 28.87C205.03 28.89 203.15 28.9 201.28 28.85C200.47 28.83 199.54 28.81 198.95 28.11C198.75 27.87 198.66 27.63 198.66 27.32C198.66 27.27 198.66 27.22 198.67 27.17C198.74 26.37 199.14 26.02 199.68 25.56ZM117.04 25.55C118.7 25.28 123.13 25.23 124.63 25.81C125.18 26.03 125.43 26.27 125.68 26.84C125.66 27.27 125.54 27.55 125.33 27.9C124.96 28.5 124.65 28.61 124.03 28.76C122.59 29.1 119.98 28.98 118.48 28.87C117.75 28.81 116.75 28.62 116.26 27.98C116.1 27.78 116.03 27.54 116.03 27.29C116.03 27.23 116.04 27.17 116.04 27.12C116.13 26.38 116.55 25.99 117.04 25.55ZM85.56 25.55C86.79 25.38 92.25 25.17 93.16 25.68C93.55 25.91 93.87 26.27 93.98 26.74C94 26.79 94 26.84 94.01 26.89C94.02 26.95 94.03 27 94.03 27.05Q94.03 27.1 94.03 27.15L94.03 27.15C94.03 27.17 94.03 27.19 94.03 27.21C94.03 27.26 94.02 27.32 94.02 27.37C94.01 27.42 94 27.48 93.99 27.53C93.98 27.58 93.96 27.63 93.95 27.68C93.93 27.73 93.91 27.78 93.89 27.83C93.87 27.88 93.85 27.92 93.82 27.97C93.54 28.47 93.16 28.61 92.67 28.74C92.16 28.87 91.59 28.87 91.05 28.87C90.9 28.87 90.75 28.87 90.6 28.87C90.37 28.88 90.1 28.89 89.8 28.91C88.2 28.99 85.79 29.12 84.86 28.08C84.66 27.85 84.58 27.57 84.58 27.27C84.58 27.23 84.58 27.19 84.59 27.15C84.64 26.4 85.06 26.01 85.56 25.55ZM242.92 25.56C244.44 25.31 249.3 25.17 250.56 25.9C250.95 26.13 251.43 26.5 251.55 26.98C251.57 27.1 251.59 27.21 251.59 27.31C251.59 27.46 251.55 27.61 251.46 27.75C251.15 28.26 250.57 28.6 250.04 28.74C249.61 28.84 249.17 28.85 248.73 28.86C248.64 28.86 248.55 28.86 248.45 28.86C248.21 28.87 247.91 28.89 247.58 28.9C245.85 29.01 243.2 29.16 242.23 28.08C242.02 27.85 241.94 27.57 241.94 27.27C241.94 27.23 241.95 27.19 241.95 27.15C242 26.4 242.43 26.01 242.92 25.56Z" fill="#FEFFFE" fill-opacity="1.000000" fill-rule="evenodd"/>
</svg>
